<svg width="131" height="133" viewBox="0 0 131 133" fill="none" xmlns="http://www.w3.org/2000/svg">
<path d="M92.5298 17.415C92.5298 14.4204 92.4645 12.3372 92.5298 10.2539C92.6603 7.38953 94.3577 5.82712 97.5566 5.82712C101.539 5.82712 105.521 5.89222 109.503 5.82712C113.42 5.76202 115.118 7.51973 115.118 11.0352C115.052 17.6103 114.922 24.1854 115.248 30.7606C115.314 32.4532 116.489 34.4713 117.86 35.7082C120.536 38.182 123.735 40.2001 126.673 42.3484C131.243 45.7987 132.157 50.6813 128.827 54.3269C125.563 57.9725 120.536 58.3631 115.966 54.9779C99.1886 42.739 82.4761 30.4351 65.4372 17.8707C57.4074 23.7297 49.3123 29.6538 41.2172 35.6431C32.5998 41.9578 24.113 48.3376 15.4303 54.5873C10.2729 58.3631 5.18086 58.1027 1.85142 54.1967C-1.41274 50.3558 -0.302927 45.6685 4.72388 42.0229C22.1545 29.1981 39.5198 16.3734 56.8851 3.61371C63.544 -1.26881 67.3304 -1.20371 74.0546 3.80901C79.9301 8.17074 85.8056 12.4674 92.5298 17.415ZM97.2954 10.2539C97.2954 13.6392 97.4913 16.3083 97.2301 18.9774C97.0996 20.4096 96.3815 22.6881 95.4022 22.9485C94.0313 23.3391 91.7464 22.6881 90.4407 21.7767C83.4554 16.8942 76.6007 11.8164 69.8112 6.67343C66.6776 4.26471 64.0663 4.19961 60.8674 6.60833C43.3062 19.5633 25.6798 32.5834 8.05332 45.5383C5.83369 47.1658 3.80991 48.8584 6.16011 51.4625C8.44502 53.9363 10.5341 52.3088 12.5579 50.8115C28.5522 39.0283 44.6772 27.3102 60.6063 15.3969C64.1316 12.7929 66.8082 12.858 70.2682 15.462C86.3279 27.4404 102.518 39.2236 118.643 51.0719C120.732 52.5692 122.756 53.6108 124.714 51.3323C126.608 49.184 125.498 47.4262 123.343 45.9289C119.883 43.4551 116.293 41.0464 113.159 38.2471C111.723 36.9451 110.483 34.7317 110.417 32.9089C110.091 25.5525 110.287 18.1962 110.287 10.6445C108.981 10.4492 108.002 10.2539 106.957 10.2539C103.954 10.1888 100.886 10.2539 97.2954 10.2539Z" fill="#FFDCA3"/>
<path d="M86.589 127.89C86.589 122.812 86.6543 118.972 86.589 115.131C86.5237 112.071 88.2211 110.704 91.42 110.704C93.6396 110.704 95.8592 110.704 98.0136 110.704C104.738 110.639 108.785 107.123 108.851 101.004C108.981 88.3744 108.851 75.7449 108.916 63.1805C108.916 62.0087 108.851 60.7067 109.308 59.6C109.569 58.949 110.809 58.2329 111.592 58.2329C112.376 58.2329 113.225 59.0792 113.812 59.7302C114.139 60.0557 113.943 60.7718 113.943 61.2926C113.943 74.9637 114.073 88.6999 113.877 102.371C113.747 109.402 107.153 115 99.1886 115.391C96.8385 115.521 94.5535 115.391 91.5505 115.391C91.5505 119.753 91.8117 123.919 91.42 127.955C91.2894 129.713 90.2449 132.252 88.8086 132.773C87.3724 133.294 84.6305 132.187 83.1943 131.015C78.1022 126.784 73.4671 122.031 68.375 117.8C66.7429 116.433 64.1316 115.456 61.9772 115.391C52.4459 115.131 42.8493 115.326 33.3179 115.261C23.0685 115.196 16.8666 109.532 16.8013 100.223C16.8013 87.5932 16.8013 74.9637 16.8013 62.3993C16.8013 60.7067 16.0179 58.0376 19.1515 58.298C20.1307 58.3631 21.6322 60.902 21.6975 62.3342C21.8934 74.8335 21.7628 87.2677 21.8281 99.7669C21.8281 107.253 25.5492 110.574 33.6443 110.639C43.5021 110.639 53.3599 110.769 63.2176 110.574C66.6776 110.508 69.0278 111.55 71.3127 113.698C76.0131 118.255 80.8441 122.617 86.589 127.89Z" fill="#FFDCA3"/>
<path d="M89.9837 69.1697C91.2241 67.9979 90.506 65.9147 88.8739 65.6543L75.0339 63.6362C74.381 63.5711 73.7935 63.1154 73.4671 62.5295L67.2652 50.0302C66.4818 48.5329 64.3274 48.5329 63.6093 50.0302L57.4074 62.5295C57.081 63.1154 56.5587 63.5711 55.8406 63.6362L42.0006 65.7194C40.3032 65.9798 39.6504 67.9979 40.8908 69.2348L50.9444 78.9999C51.4014 79.4556 51.6625 80.1717 51.5319 80.8227L49.1817 94.6239C48.9206 96.3165 50.6832 97.5535 52.1848 96.7722L64.5886 90.2622C65.1761 89.9367 65.8942 89.9367 66.4818 90.2622L78.8856 96.7722C80.3871 97.5535 82.1497 96.3165 81.8886 94.6239L79.5384 80.8227C79.4078 80.1717 79.669 79.4556 80.1259 78.9999L89.9837 69.1697ZM75.6214 77.177C75.295 77.5025 75.0991 77.9583 75.2297 78.4791L76.8618 88.179C77.0576 89.3508 75.8173 90.2622 74.7727 89.6763L66.0901 85.1193C65.6984 84.924 65.1761 84.924 64.7191 85.1193L56.0365 89.6763C54.9919 90.2622 53.7515 89.3508 53.9474 88.179L55.5795 78.4791C55.6448 78.0234 55.5142 77.5676 55.1878 77.177L48.1372 70.2764C47.2885 69.4301 47.7455 67.9979 48.9206 67.8026L58.6478 66.3704C59.1048 66.3053 59.4965 65.9798 59.7576 65.5892L64.1316 56.8006C64.6538 55.759 66.1553 55.759 66.7429 56.8006L71.1169 65.5892C71.3127 66.0449 71.7044 66.3053 72.2267 66.3704L81.9539 67.8026C83.129 67.9979 83.586 69.4301 82.7373 70.2764L75.6214 77.177Z" fill="#FFDCA3"/>
</svg>
